HIERARCHY
ROOT Hips
{
	OFFSET	0.00	0.00	0.00
	CHANNELS 6 Xposition Yposition Zposition Zrotation Xrotation Yrotation
	JOINT LeftUpLeg
	{
		OFFSET	 0.126116	-0.014019	-0.065224
		CHANNELS 3 Zrotation Xrotation Yrotation
		JOINT LeftLeg
		{
			OFFSET	 0.000000	 0.000000	 0.569914
			CHANNELS 3 Zrotation Xrotation Yrotation
			JOINT LeftFoot
			{
				OFFSET	 0.000000	 0.000000	 0.544423
				CHANNELS 3 Zrotation Xrotation Yrotation
				JOINT LeftToeBase
				{
					OFFSET	 0.000000	 0.000000	 0.207117
					CHANNELS 3 Zrotation Xrotation Yrotation
					End Site
					{
						OFFSET	 0.000000	 0.000000	 0.207117
					}
				}
			}
		}
	}
	JOINT RightUpLeg
	{
		OFFSET	-0.124023	-0.008373	-0.065224
		CHANNELS 3 Zrotation Xrotation Yrotation
		JOINT RightLeg
		{
			OFFSET	 0.000000	 0.000000	 0.570047
			CHANNELS 3 Zrotation Xrotation Yrotation
			JOINT RightFoot
			{
				OFFSET	 0.000000	 0.000000	 0.544354
				CHANNELS 3 Zrotation Xrotation Yrotation
				JOINT RightToeBase
				{
					OFFSET	 0.000000	 0.000000	 0.207540
					CHANNELS 3 Zrotation Xrotation Yrotation
					End Site
					{
						OFFSET	 0.000000	 0.000000	 0.207540
					}
				}
			}
		}
	}
	JOINT Spine
	{
		OFFSET	 0.000184	-0.007763	 0.117403
		CHANNELS 3 Zrotation Xrotation Yrotation
		JOINT Spine1
		{
			OFFSET	 0.000000	 0.000000	 0.137269
			CHANNELS 3 Zrotation Xrotation Yrotation
			JOINT Spine2
			{
				OFFSET	 0.000000	 0.000000	 0.156879
				CHANNELS 3 Zrotation Xrotation Yrotation
				JOINT LeftShoulder
				{
					OFFSET	 0.080501	-0.002496	 0.160144
					CHANNELS 3 Zrotation Xrotation Yrotation
					JOINT LeftArm
					{
						OFFSET	 0.000000	 0.000000	 0.164363
						CHANNELS 3 Zrotation Xrotation Yrotation
						JOINT LeftForeArm
						{
							OFFSET	 0.000000	 0.000000	 0.364576
							CHANNELS 3 Zrotation Xrotation Yrotation
							JOINT LeftHand
							{
								OFFSET	 0.000000	 0.000000	 0.360812
								CHANNELS 3 Zrotation Xrotation Yrotation
								JOINT LeftHandIndex1
								{
									OFFSET	 0.000000	 0.000000	 0.086006
									CHANNELS 3 Zrotation Xrotation Yrotation
									JOINT LeftHandIndex2
									{
										OFFSET	 0.000000	 0.000000	 0.047236
										CHANNELS 3 Zrotation Xrotation Yrotation
										JOINT LeftHandIndex3
										{
											OFFSET	-0.004284	-0.000551	 0.038166
											CHANNELS 3 Zrotation Xrotation Yrotation
											End Site
											{
												OFFSET	-0.004284	-0.000551	 0.038166
											}
										}
									}
								}
							}
						}
					}
				}
				JOINT Neck
				{
					OFFSET	 0.000000	 0.000000	 0.176489
					CHANNELS 3 Zrotation Xrotation Yrotation
					JOINT Head
					{
						OFFSET	 0.000000	-0.001747	 0.077940
						CHANNELS 3 Zrotation Xrotation Yrotation
						End Site
						{
							OFFSET	 0.000000	-0.001747	 0.077940
						}
					}
				}
				JOINT RightShoulder
				{
					OFFSET	-0.080363	 0.000306	 0.159706
					CHANNELS 3 Zrotation Xrotation Yrotation
					JOINT RightArm
					{
						OFFSET	 0.000000	 0.000000	 0.164196
						CHANNELS 3 Zrotation Xrotation Yrotation
						JOINT RightForeArm
						{
							OFFSET	 0.000000	 0.000000	 0.365611
							CHANNELS 3 Zrotation Xrotation Yrotation
							JOINT RightHand
							{
								OFFSET	 0.000000	 0.000000	 0.360648
								CHANNELS 3 Zrotation Xrotation Yrotation
								JOINT RightHandIndex1
								{
									OFFSET	 0.000000	 0.000000	 0.069977
									CHANNELS 3 Zrotation Xrotation Yrotation
									JOINT RightHandIndex2
									{
										OFFSET	 0.000000	 0.000000	 0.052305
										CHANNELS 3 Zrotation Xrotation Yrotation
										JOINT RightHandIndex3
										{
											OFFSET	 0.009002	-0.000782	 0.042196
											CHANNELS 3 Zrotation Xrotation Yrotation
											End Site
											{
												OFFSET	 0.009002	-0.000782	 0.042196
											}
										}
									}
								}
							}
						}
					}
				}
			}
		}
	}
}
MOTION
Frames:    13
Frame Time: 0.03333334
-0.000263	 0.017256	 1.305959	-0.000597	 0.017867	-0.001859	-4.900790	-1.553467	 178.909500	 1.475465	-11.779200	-0.687366	-5.222300	 64.713550	-0.916823	-2.385833	 28.452760	 0.000004	 4.782094	-2.028912	-178.894100	-1.455943	-12.275080	 0.704009	 5.098373	 64.803540	 0.887631	 2.384658	 28.388730	 0.000004	-14.020440	 1.718594	 0.072262	 0.184569	 7.068740	 0.086511	-0.500235	-9.028819	-0.145896	-91.776230	 78.527470	-180.000000	 56.711380	 40.026970	-52.774350	-20.449870	 2.742438	-11.541200	-36.883300	 8.992116	-2.964432	-2.635965	 4.993658	 6.788941	-5.165319	 0.784187	 3.516649	-5.225038	 0.466231	 0.424329	-0.000002	-3.783157	-0.089647	-0.446042	 2.994496	 0.011645	 89.782080	 78.203900	-180.000000	-0.157329	 12.781410	 105.601100	-22.096000	 2.398985	 11.621280	 13.082960	 6.823276	-7.314773	 6.112037	 4.509576	-0.364401	 4.968462	 1.518543	-9.347576	 5.168945	 0.703820	 2.021906
-0.000319	 0.017125	 1.308108	-0.000973	 0.017938	-0.021552	-4.712764	-1.536743	 178.912400	 1.476058	-11.730590	-0.684448	-5.214811	 64.339160	-0.912600	-2.385833	 28.452760	 0.000004	 4.596754	-2.048064	-178.864300	-1.455549	-12.306400	 0.705858	 5.096816	 64.470340	 0.877357	 2.384658	 28.388730	 0.000004	-13.312980	 1.730939	 0.057564	 0.381420	 7.031272	 0.160152	-1.092069	-8.976298	-0.309184	-91.776120	 78.527450	 179.999900	 56.782720	 40.010440	-52.872480	-20.658790	 2.830214	-11.727430	-36.019440	 8.159353	-3.208094	-2.635965	 4.993658	 6.788941	-5.165319	 0.784187	 3.516649	-5.225038	 0.466231	 0.424329	-0.000002	-3.783157	-0.089647	-1.000594	 3.007863	 0.026257	 89.782050	 78.203900	-180.000000	-0.135455	 12.993900	 105.618100	-22.052150	 2.486300	 11.806370	 12.121010	 6.032197	-7.136014	 6.112037	 4.509576	-0.364401	 4.968462	 1.518543	-9.347576	 5.168945	 0.703820	 2.021906
-0.000344	 0.016970	 1.310156	-0.001193	 0.017337	-0.042703	-4.523838	-1.522768	 178.917300	 1.476564	-11.688980	-0.681953	-5.207420	 63.966780	-0.907882	-2.385833	 28.452760	 0.000004	 4.410304	-2.069863	-178.833500	-1.455065	-12.344530	 0.708116	 5.095076	 64.139150	 0.866855	 2.384658	 28.388730	 0.000004	-12.479410	 1.751997	 0.043428	 0.575005	 6.966878	 0.235859	-1.675706	-8.885444	-0.469986	-91.776140	 78.527470	 180.000000	 56.911970	 40.002220	-53.078430	-20.867050	 2.919765	-11.913590	-35.033170	 6.248618	-3.570415	-2.635965	 4.993658	 6.788941	-5.165319	 0.784187	 3.516649	-5.225038	 0.466231	 0.424329	-0.000002	-3.783157	-0.089647	-1.548569	 3.031583	 0.040966	 89.782080	 78.203920	-180.000000	-0.168908	 13.273180	 105.589800	-22.020390	 2.574284	 11.993960	 10.527400	 4.384119	-6.834476	 6.112037	 4.509576	-0.364401	 4.968462	 1.518543	-9.347576	 5.168945	 0.703820	 2.021906
-0.000336	 0.016783	 1.312047	-0.001208	 0.016092	-0.064951	-4.333374	-1.511614	 178.923700	 1.476987	-11.654500	-0.679883	-5.200167	 63.595180	-0.902594	-2.385833	 28.452760	 0.000004	 4.221973	-2.093775	-178.802000	-1.454513	-12.388210	 0.710702	 5.092981	 63.807920	 0.856290	 2.384658	 28.388730	 0.000004	-11.490120	 1.781718	 0.029559	 0.764081	 6.875691	 0.313309	-2.247532	-8.756639	-0.626516	-91.776210	 78.527450	-180.000000	 57.104670	 40.020450	-53.414250	-21.062650	 3.004572	-12.087320	-33.943020	 2.967987	-4.001435	-2.635965	 4.993658	 6.788941	-5.165319	 0.784187	 3.516649	-5.225038	 0.466231	 0.424329	-0.000002	-3.783157	-0.089647	-2.087194	 3.066008	 0.055850	 89.782150	 78.203890	 180.000000	-0.325651	 13.924720	 105.534000	-21.732180	 2.660775	 12.169710	 7.828130	 1.617732	-6.424892	 6.112037	 4.509576	-0.364401	 4.968462	 1.518543	-9.347576	 5.168945	 0.703820	 2.021906
-0.000355	 0.016660	 1.314024	-0.000970	 0.014167	-0.088891	-4.175999	-1.502131	 178.934800	 1.477317	-11.626790	-0.678221	-5.193480	 63.280360	-0.898361	-2.385833	 28.452760	 0.000004	 4.066365	-2.119247	-178.771700	-1.453867	-12.438920	 0.713704	 5.091605	 63.533710	 0.846626	 2.384658	 28.388730	 0.000004	-10.276220	 1.860641	 0.061196	 0.957122	 6.679250	 0.310299	-2.811868	-8.552456	-0.739865	-91.776240	 78.527430	-180.000000	 57.368400	 40.074110	-53.903130	-21.237030	 3.082006	-12.242930	-32.735700	-2.063622	-4.409336	-2.635965	 4.993658	 6.788941	-5.165319	 0.784187	 3.516649	-5.225038	 0.466231	 0.424329	-0.000002	-3.783157	-0.089647	-2.627546	 3.113023	 0.071396	 89.782100	 78.203890	 180.000000	-2.819967	 15.153760	 105.225400	-20.580390	 2.746932	 12.327000	 4.919683	-3.198990	-5.981852	 6.112037	 4.509576	-0.364401	 4.968462	 1.518543	-9.347576	 5.168945	 0.703820	 2.021906
-0.000420	 0.016690	 1.315077	-0.000466	 0.011702	-0.113054	-4.173877	-1.491264	 178.957900	 1.477567	-11.606390	-0.676997	-5.190097	 63.226600	-0.900444	-2.385833	 28.452760	 0.000004	 4.065229	-2.140674	-178.752300	-1.453172	-12.493350	 0.716928	 5.094501	 63.518780	 0.842014	 2.384658	 28.388730	 0.000004	-8.852756	 1.905485	 0.059722	 1.135474	 6.537119	 0.368822	-3.350125	-8.349631	-0.872861	-91.776100	 78.527490	 179.999900	 57.707200	 40.177070	-54.555620	-21.365180	 3.141011	-12.359300	-31.460430	-8.695632	-4.612896	-2.635965	 4.993658	 6.788941	-5.165319	 0.784187	 3.516649	-5.225038	 0.466231	 0.424329	-0.000002	-3.783157	-0.089647	-3.140999	 3.171044	 0.086949	 89.782100	 78.203850	 180.000000	-8.154099	 16.835540	 104.498400	-18.544130	 2.821532	 12.442210	 2.990914	-10.240240	-5.823353	 6.112037	 4.509576	-0.364401	 4.968462	 1.518543	-9.347576	 5.168945	 0.703820	 2.021906
-0.000460	 0.016699	 1.316102	-0.000664	 0.009934	-0.129951	-4.171419	-1.484891	 178.973900	 1.477704	-11.594960	-0.676313	-5.188504	 63.178960	-0.900560	-2.385833	 28.452760	 0.000004	 4.064629	-2.159525	-178.738800	-1.452576	-12.539850	 0.719683	 5.097999	 63.501220	 0.836677	 2.384658	 28.388730	 0.000004	-7.251756	 1.954327	 0.051956	 1.297320	 6.377432	 0.421682	-3.838097	-8.123612	-0.988681	-91.776080	 78.527470	 179.999900	 58.111520	 40.312530	-55.334340	-21.429320	 3.168690	-12.414470	-30.103190	-16.325600	-4.433120	-2.635965	 4.993658	 6.788941	-5.165319	 0.784187	 3.516649	-5.225038	 0.466231	 0.424329	-0.000002	-3.783157	-0.089647	-3.609780	 3.237737	 0.102039	 89.782140	 78.203900	 180.000000	-14.645820	 19.284570	 102.648600	-16.034810	 2.872118	 12.502410	 2.090496	-18.699630	-6.182618	 6.112037	 4.509576	-0.364401	 4.968462	 1.518543	-9.347576	 5.168945	 0.703820	 2.021906
-0.000485	 0.016701	 1.316940	-0.000792	 0.008151	-0.144521	-4.169206	-1.481677	 178.988000	 1.477758	-11.590420	-0.676040	-5.187777	 63.137070	-0.899766	-2.385833	 28.452760	 0.000004	 4.063969	-2.177407	-178.727300	-1.452007	-12.584020	 0.722302	 5.101546	 63.484680	 0.831345	 2.384658	 28.388730	 0.000004	-5.515424	 2.005977	 0.043335	 1.439680	 6.207617	 0.470738	-4.268778	-7.884887	-1.087290	-91.776190	 78.527420	 180.000000	 58.553590	 40.473850	-56.188670	-21.419730	 3.164045	-12.405510	-28.594360	-24.071590	-3.754721	-2.635965	 4.993658	 6.788941	-5.165319	 0.784187	 3.516649	-5.225038	 0.466231	 0.424329	-0.000002	-3.783157	-0.089647	-4.026503	 3.310475	 0.116388	 89.782120	 78.203850	 180.000000	-21.800610	 22.614420	 99.858560	-13.503880	 2.890162	 12.494630	 1.690959	-27.397440	-7.170282	 6.112037	 4.509576	-0.364401	 4.968462	 1.518543	-9.347576	 5.168945	 0.703820	 2.021906
-0.000510	 0.016738	 1.317355	-0.001004	 0.006314	-0.158357	-4.166784	-1.479856	 179.001500	 1.477774	-11.589040	-0.675957	-5.187353	 63.092320	-0.898491	-2.385833	 28.452760	 0.000004	 4.063179	-2.195010	-178.716500	-1.451443	-12.627770	 0.724896	 5.105044	 63.463520	 0.825882	 2.384658	 28.388730	 0.000004	-3.322855	 2.068715	 0.031699	 1.584855	 5.999262	 0.523510	-4.709227	-7.594134	-1.183481	-91.776150	 78.527430	 180.000000	 59.105780	 40.678260	-57.251350	-21.308640	 3.114042	-12.306760	-26.483520	-32.203840	-2.277552	-2.635965	 4.993658	 6.788941	-5.165319	 0.784187	 3.516649	-5.225038	 0.466231	 0.424329	-0.000002	-3.783157	-0.089647	-4.456293	 3.402265	 0.132400	 89.782040	 78.203850	-180.000000	-30.259740	 26.065220	 95.875990	-10.689050	 2.865748	 12.395800	 0.659375	-36.336480	-8.948037	 6.112037	 4.509576	-0.364401	 4.968462	 1.518543	-9.347576	 5.168945	 0.703820	 2.021906
-0.000515	 0.016680	 1.318004	-0.000931	 0.005287	-0.169067	-4.153911	-1.477282	 179.010700	 1.477832	-11.584100	-0.675662	-5.173774	 63.046620	-0.899817	-2.385833	 28.452760	 0.000004	 4.072442	-2.208945	-178.708800	-1.450989	-12.662430	 0.726953	 5.120618	 63.438300	 0.818598	 2.384658	 28.388730	 0.000004	-0.909797	 2.134437	 0.017974	 1.712780	 5.776796	 0.573851	-5.099399	-7.286274	-1.263941	-91.776180	 78.527450	 180.000000	 59.692240	 40.898880	-58.381600	-21.073700	 3.009460	-12.097160	-23.887270	-38.226670	-0.167127	-2.635965	 4.993658	 6.788941	-5.165319	 0.784187	 3.516649	-5.225038	 0.466231	 0.424329	-0.000002	-3.783157	-0.089647	-4.840801	 3.503296	 0.148113	 89.782080	 78.203870	 180.000000	-37.897150	 28.950240	 86.397100	-8.072289	 3.756451	 19.242240	-0.684894	-42.920530	-10.859310	 6.112037	 4.509576	-0.364401	 4.968462	 1.518543	-9.347576	 5.168945	 0.703820	 2.021906
-0.000525	 0.016593	 1.318603	-0.000573	 0.004610	-0.176815	-4.151544	-1.475363	 179.017600	 1.477878	-11.580610	-0.675452	-5.172610	 63.005980	-0.898518	-2.385833	 28.452760	 0.000004	 4.071780	-2.220472	-178.702900	-1.450628	-12.690250	 0.728602	 5.123927	 63.414240	 0.814364	 2.384658	 28.388730	 0.000004	 1.451223	 2.196739	 0.004470	 1.814603	 5.564265	 0.617706	-5.411871	-6.994413	-1.324277	-91.776130	 78.527430	 180.000000	 60.225660	 41.094170	-59.415220	-20.737620	 2.864471	-11.798730	-21.371320	-40.682250	 1.793464	-2.635965	 4.993658	 6.788941	-5.165319	 0.784187	 3.516649	-5.225038	 0.466231	 0.424329	-0.000002	-3.783157	-0.089647	-5.151953	 3.602822	 0.162128	 89.782160	 78.203900	 179.999900	-44.397930	 31.406710	 76.010860	-5.710815	 5.307810	 26.115640	-0.895286	-45.836220	-11.657930	 6.112037	 4.509576	-0.364401	 4.968462	 1.518543	-9.347576	 5.168945	 0.703820	 2.021906
-0.000545	 0.016530	 1.318991	-0.000137	 0.003802	-0.183786	-4.149080	-1.475394	 179.023900	 1.477865	-11.581580	-0.675512	-5.171879	 62.963150	-0.896517	-2.385833	 28.452760	 0.000004	 4.070884	-2.232373	-178.697600	-1.450251	-12.719200	 0.730321	 5.127454	 63.386380	 0.809752	 2.384658	 28.388730	 0.000004	 4.082320	 2.269734	-0.011328	 1.913666	 5.314658	 0.664020	-5.717361	-6.654366	-1.378080	-91.776170	 78.527490	 180.000000	 60.742120	 41.260920	-60.447630	-20.242970	 2.655777	-11.354820	-19.176030	-39.297630	 3.008472	-2.635965	 4.993658	 6.788941	-5.165319	 0.784187	 3.516649	-5.225038	 0.466231	 0.424329	-0.000002	-3.783157	-0.089647	-5.459939	 3.723463	 0.177594	 89.782160	 78.203900	 179.999900	-51.102140	 34.344880	 67.026340	-2.770394	 6.619491	 28.415510	 0.887575	-44.896210	-10.289350	 6.112037	 4.509576	-0.364401	 4.968462	 1.518543	-9.347576	 5.168945	 0.703820	 2.021906
-0.000556	 0.016526	 1.319036	 0.000312	 0.002967	-0.188882	-4.146826	-1.477604	 179.028700	 1.477793	-11.587400	-0.675860	-5.171771	 62.923360	-0.893958	-2.385833	 28.452760	 0.000004	 4.069780	-2.242724	-178.694000	-1.449915	-12.744730	 0.731836	 5.130549	 63.357290	 0.805486	 2.384658	 28.388730	 0.000004	 6.372470	 2.344938	-0.027543	 1.996389	 5.056777	 0.706765	-5.973919	-6.306118	-1.417628	-91.776150	 78.527450	 180.000000	 61.085700	 41.340550	-61.206170	-19.706010	 2.440728	-10.874400	-18.034360	-34.812780	 2.850210	-2.635965	 4.993658	 6.788941	-5.165319	 0.784187	 3.516649	-5.225038	 0.466231	 0.424329	-0.000002	-3.783157	-0.089647	-5.722606	 3.852311	 0.192598	 89.782070	 78.203890	-180.000000	-55.970690	 37.155960	 60.710580	 0.244294	 7.624689	 28.574160	 4.183370	-40.596810	-7.123069	 6.112037	 4.509576	-0.364401	 4.968462	 1.518543	-9.347576	 5.168945	 0.703820	 2.021906
